<svg xmlns="http://www.w3.org/2000/svg" width="530" height="530" viewBox="0 0 530 530" version="1.1"><path d="M 195.300 257 C 195.300 260.025, 195.487 261.262, 195.716 259.750 C 195.945 258.238, 195.945 255.762, 195.716 254.250 C 195.487 252.738, 195.300 253.975, 195.300 257 M 334.300 260 C 334.300 263.025, 334.487 264.262, 334.716 262.750 C 334.945 261.238, 334.945 258.762, 334.716 257.250 C 334.487 255.738, 334.300 256.975, 334.300 260 M 10.027 504.750 L 10 512 13 512 C 14.650 512, 16 511.875, 16 511.721 C 16 511.568, 14.662 508.305, 13.027 504.471 L 10.054 497.500 10.027 504.750 M 263.250 511.689 C 264.212 511.941, 265.788 511.941, 266.750 511.689 C 267.712 511.438, 266.925 511.232, 265 511.232 C 263.075 511.232, 262.288 511.438, 263.250 511.689" stroke="none" fill="#2cbcdc" fill-rule="evenodd"/><path d="M 235.369 3.502 C 176.984 10.905, 126.294 35.572, 85.467 76.449 C 63.558 98.385, 49.477 117.951, 36.494 144.500 C 27.560 162.770, 22.938 175.088, 18.539 192.357 C -1.047 269.231, 14.480 346.988, 62.140 410.708 C 72.393 424.415, 97.947 449.766, 112 460.170 C 146.993 486.077, 183.046 501.328, 226.673 508.676 C 242.248 511.300, 287.752 511.300, 303.327 508.676 C 359.915 499.144, 405.421 475.828, 445.018 436.078 C 467.386 413.623, 480.738 395.013, 494.074 367.707 C 529.218 295.744, 528.259 211.908, 491.471 140.037 C 479.487 116.626, 464.834 96.775, 444.533 76.449 C 418.271 50.154, 388.256 30.785, 353.500 17.702 C 339.927 12.593, 317.594 6.840, 302 4.436 C 287.351 2.178, 249.947 1.654, 235.369 3.502 M 244 20.618 C 208.556 24.904, 184.009 32.160, 155.764 46.697 C 96.180 77.364, 51.954 133.187, 35.534 198.451 C 30.147 219.861, 28.609 232.747, 28.604 256.500 C 28.597 295.317, 35.734 326.446, 52.476 360.617 C 79.943 416.679, 128.626 460.043, 186.440 479.944 C 214.474 489.595, 235.108 493.003, 265.436 492.995 C 327.007 492.977, 383.708 470.419, 427.972 428.332 C 485.120 373.993, 511.631 294.465, 498.419 217 C 489.106 162.401, 460.079 111.271, 418.577 76.365 C 384.951 48.084, 343.942 29.294, 301 22.492 C 290.933 20.897, 252.215 19.624, 244 20.618 M 186.661 141.079 C 156.123 145.240, 130.643 167.138, 121.008 197.500 C 118.005 206.963, 117.189 225.591, 119.335 235.678 C 122.577 250.914, 128.932 262.744, 140 274.147 C 147.178 281.542, 262.776 372, 265.049 372 C 265.595 372, 292.245 351.730, 324.271 326.956 C 393.747 273.211, 398.810 268.426, 406.608 249.118 C 414.701 229.082, 413.616 204.250, 403.783 184.500 C 384.395 145.555, 336.012 129.272, 297.522 148.737 C 286.449 154.337, 274.802 164.238, 267.217 174.500 L 265 177.500 262.783 174.500 C 244.784 150.149, 215.250 137.182, 186.661 141.079 M 183.365 153.493 C 163.603 157.791, 146.533 170.778, 137.313 188.528 C 131.580 199.567, 129.692 207.314, 129.644 220 C 129.576 238.121, 136.023 254.029, 148.494 266.514 C 155.072 273.099, 263.165 357.500, 265.021 357.500 C 267.045 357.500, 379.246 269.546, 383.996 264.236 C 389.871 257.667, 396.213 245.478, 398.686 236 C 400.930 227.403, 400.871 211.646, 398.562 203 C 395.525 191.622, 389.509 181.402, 380.555 172.412 C 371.543 163.363, 363.485 158.402, 352 154.832 C 345.773 152.896, 342.378 152.509, 332 152.551 C 321.154 152.595, 318.495 152.951, 311.904 155.242 C 291.786 162.235, 277.150 176.112, 268.954 195.963 C 267.129 200.383, 265.350 204, 265 204 C 264.650 204, 262.871 200.383, 261.046 195.963 C 254.182 179.338, 242.886 167.030, 227.500 159.412 C 213.242 152.353, 198.005 150.309, 183.365 153.493 M 272.510 240.770 C 265.971 260.971, 260.353 277.831, 260.024 278.236 C 259.696 278.642, 254.309 267.486, 248.054 253.446 C 241.799 239.406, 236.371 228.275, 235.992 228.709 C 235.613 229.144, 233.565 234.563, 231.440 240.750 L 227.578 252 211.789 252 L 196 252 196 257 L 196 262 215.402 262 L 234.804 262 235.915 258.813 C 236.586 256.889, 237.380 255.997, 237.919 256.563 C 238.411 257.078, 243.613 268.300, 249.480 281.500 C 255.348 294.700, 260.476 305.839, 260.877 306.253 C 261.277 306.666, 266.687 291.366, 272.897 272.253 C 279.108 253.139, 284.500 237.169, 284.881 236.764 C 285.261 236.360, 287.986 242.547, 290.937 250.514 L 296.302 265 315.151 265 L 334 265 334 260 L 334 255 318.720 255 L 303.440 255 295.042 232.250 C 290.423 219.738, 286.138 208.271, 285.520 206.770 C 284.501 204.291, 283.305 207.414, 272.510 240.770" stroke="none" fill="#1cbcd4" fill-rule="evenodd"/></svg>