<svg xmlns="http://www.w3.org/2000/svg" width="2000" height="1500" viewBox="0 0 2000 1500" version="1.1"><path d="M 0 750 L 0 1500.001 1000.250 1499.750 L 2000.500 1499.500 2000.751 749.750 L 2001.001 0 1000.501 0 L 0 0 0 750 M 0.497 750.500 C 0.497 1163, 0.611 1331.600, 0.750 1125.168 C 0.889 918.735, 0.889 581.235, 0.750 375.168 C 0.611 169.100, 0.497 338, 0.497 750.500 M 963.001 343.067 C 879.034 355.762, 807.987 407.666, 770.998 483.335 C 759.278 507.312, 751.624 531.424, 747.458 557.500 C 745.267 571.215, 744.434 605.635, 745.932 620.593 C 752.078 681.981, 779.426 737.866, 824.139 780.410 C 862.374 816.791, 909.686 839.967, 962.500 848.187 C 982.572 851.311, 1017.464 851.308, 1037.500 848.181 C 1065.214 843.855, 1087.292 836.891, 1112.500 824.526 C 1139.224 811.417, 1158.573 797.533, 1180.053 776.053 C 1213.480 742.626, 1235.605 704.118, 1247.020 659.500 C 1253.438 634.417, 1254.505 625.170, 1254.465 595 C 1254.427 566.536, 1253.178 555.399, 1247.519 533.076 C 1235.400 485.265, 1207.172 438.388, 1171.235 406.392 C 1131.966 371.430, 1087.452 350.562, 1036 342.996 C 1017.518 340.278, 981.213 340.314, 963.001 343.067 M 986 359.592 C 951.689 362.541, 924.067 369.890, 896.458 383.414 C 823.097 419.349, 774.216 489.023, 764.935 570.887 C 763.228 585.939, 764.240 619.301, 766.864 634.500 C 778.246 700.425, 815.799 757.483, 872 794.243 C 898.953 811.873, 932.608 824.471, 966.500 829.617 C 983.184 832.151, 1016.816 832.151, 1033.500 829.617 C 1074.150 823.445, 1109.805 808.513, 1143 783.759 C 1154.441 775.228, 1178.334 751.562, 1186.676 740.500 C 1211.342 707.791, 1226.033 674.239, 1233.091 634.500 C 1235.776 619.383, 1236.770 588.126, 1235.084 571.810 C 1226.671 490.360, 1176.858 419.045, 1103.542 383.486 C 1071.314 367.856, 1041.542 360.584, 1005.836 359.619 C 997.401 359.392, 988.475 359.379, 986 359.592 M 915.500 480.592 C 886.728 486.991, 862.486 510.226, 854.847 538.726 C 852.141 548.821, 851.893 567.372, 854.332 577.319 C 857.650 590.856, 866.486 606.380, 876.158 615.669 C 883.286 622.514, 999.408 712.046, 1000.582 711.602 C 1002.681 710.806, 1118.566 620.665, 1123.340 616.114 C 1133.473 606.453, 1142.275 591.160, 1145.668 577.319 C 1148.107 567.372, 1147.859 548.821, 1145.153 538.726 C 1137.308 509.457, 1112.808 486.467, 1083.046 480.446 C 1073.104 478.435, 1057.100 478.891, 1047.500 481.458 C 1030.418 486.027, 1014.941 496.575, 1002.687 512 L 999.906 515.500 997.203 512.007 C 985.504 496.891, 969.707 486.091, 952.500 481.442 C 943.832 479.101, 924.230 478.651, 915.500 480.592 M 923.470 492.042 C 890.532 496.351, 864.947 525.402, 865.017 558.410 C 865.056 576.508, 871.127 591.799, 883.273 604.389 C 891.103 612.505, 997.392 695.388, 1000 695.411 C 1002.586 695.434, 1108.840 612.589, 1116.727 604.401 C 1151.894 567.889, 1133.745 506.358, 1084 493.446 C 1075.650 491.279, 1060.512 491.253, 1051.967 493.392 C 1041.354 496.048, 1029.708 502.368, 1021.964 509.673 C 1014.276 516.926, 1009.030 524.688, 1004.006 536.250 C 1002.154 540.513, 1000.351 544, 1000 544 C 999.649 544, 997.846 540.513, 995.994 536.250 C 990.970 524.688, 985.724 516.926, 978.036 509.673 C 963.935 496.371, 942.736 489.521, 923.470 492.042 M 1010.224 569.512 C 1005.222 584.905, 999.698 601.985, 997.948 607.467 L 994.767 617.433 992.093 611.467 C 990.622 608.185, 985.387 596.430, 980.460 585.344 C 975.532 574.259, 971.376 565.308, 971.224 565.454 C 971.072 565.600, 968.983 571.295, 966.582 578.110 L 962.216 590.500 946.108 590.775 L 930 591.050 930 596.525 L 930 602 950.052 602 L 970.104 602 971.176 598.924 C 971.766 597.233, 972.589 596.220, 973.005 596.674 C 973.421 597.128, 978.134 607.393, 983.477 619.485 C 988.821 631.576, 993.949 642.943, 994.873 644.743 L 996.552 648.017 1007.439 614.259 C 1013.427 595.691, 1018.745 579.375, 1019.257 578 C 1020.076 575.797, 1020.801 577.165, 1025.354 589.500 L 1030.520 603.500 1050.260 603.771 L 1070 604.042 1070 598.521 L 1070 593 1054.250 592.995 L 1038.500 592.990 1030.559 571.245 C 1026.192 559.285, 1021.876 547.705, 1020.968 545.512 L 1019.318 541.524 1010.224 569.512 M 1103.500 950.626 C 1102.400 950.842, 1099.025 951.504, 1096 952.095 C 1086.655 953.922, 1074.694 960.331, 1067.629 967.298 C 1057.519 977.267, 1053.583 988.061, 1053.698 1005.500 C 1053.810 1022.390, 1059.524 1035.654, 1071.606 1047.069 C 1078.056 1053.164, 1085.457 1057.746, 1103 1066.506 C 1130.697 1080.336, 1139.373 1089.520, 1139.364 1105 C 1139.358 1115.799, 1132.787 1124.771, 1122.133 1128.524 C 1114.939 1131.058, 1102.679 1131.546, 1095 1129.603 C 1087.614 1127.734, 1073.140 1121.104, 1068.165 1117.312 C 1066.331 1115.913, 1064.485 1115.159, 1064.061 1115.635 C 1063.638 1116.111, 1060.294 1121.864, 1056.630 1128.419 L 1049.969 1140.338 1052.099 1142.605 C 1056.672 1147.473, 1073.517 1154.700, 1087 1157.578 C 1095.972 1159.493, 1117.287 1159.402, 1126.303 1157.410 C 1137.824 1154.864, 1149.193 1148.878, 1156.401 1141.563 C 1164.436 1133.409, 1168.757 1124.691, 1170.844 1112.424 C 1173.533 1096.615, 1170.712 1084.358, 1161.372 1071.269 C 1155.033 1062.384, 1146.741 1055.928, 1128.355 1045.557 C 1105.719 1032.790, 1097.854 1027.620, 1092.724 1022.136 C 1085.750 1014.680, 1084.530 1011.751, 1084.514 1002.422 C 1084.501 995.158, 1084.806 993.848, 1087.533 989.437 C 1096.703 974.606, 1126.648 974.204, 1145.615 988.657 C 1149.318 991.480, 1148.551 992.223, 1157.042 977.588 L 1163.374 966.675 1159.937 963.776 C 1154.381 959.091, 1142.624 953.973, 1132.720 951.929 C 1124.366 950.205, 1109.095 949.524, 1103.500 950.626 M 345.120 969.250 C 273.049 1119.907, 256 1155.693, 256 1156.312 C 256 1156.716, 263.719 1156.924, 273.154 1156.774 L 290.308 1156.500 298.904 1136.743 L 307.500 1116.986 354.403 1117.243 L 401.306 1117.500 409.903 1137.249 L 418.500 1156.997 436.333 1156.999 C 447.103 1156.999, 454.035 1156.626, 453.833 1156.055 C 453.650 1155.535, 431.675 1109.651, 405 1054.090 C 367.459 975.896, 356.093 953.063, 354.697 953.036 C 353.341 953.009, 350.966 957.030, 345.120 969.250 M 1558.500 974.439 L 1544.500 977.640 1544.233 1003.820 L 1543.967 1030 1532.983 1030 L 1522 1030 1522 1042 L 1522 1054 1533 1054 L 1544 1054 1544 1105.526 L 1544 1157.052 1559.250 1156.776 L 1574.500 1156.500 1574.759 1105.250 L 1575.018 1054 1589.509 1054 L 1604 1054 1604 1042 L 1604 1030 1589.515 1030 L 1575.030 1030 1574.765 1000.833 C 1574.598 982.414, 1574.132 971.587, 1573.500 971.452 C 1572.950 971.335, 1566.200 972.679, 1558.500 974.439 M 337.400 1050.270 L 320.360 1088.500 337.745 1088.773 C 347.306 1088.924, 362.688 1088.924, 371.926 1088.773 L 388.723 1088.500 380.829 1071 C 376.488 1061.375, 369.072 1044.500, 364.350 1033.500 C 359.628 1022.500, 355.466 1013.171, 355.102 1012.770 C 354.737 1012.368, 346.771 1029.243, 337.400 1050.270 M 515.536 1027.044 C 501.757 1029.210, 490.658 1034.527, 481.103 1043.542 C 473.352 1050.853, 467.424 1060.946, 464.387 1072 C 461.925 1080.963, 461.888 1101.956, 464.320 1111 C 470.583 1134.297, 486.546 1150.710, 508.987 1156.929 C 517.312 1159.236, 537.811 1159.802, 545.859 1157.946 C 552.030 1156.523, 565.065 1151.316, 567.846 1149.163 L 570.192 1147.346 565.087 1137.173 C 562.279 1131.578, 559.815 1127, 559.612 1127 C 559.408 1127, 556.700 1128.164, 553.593 1129.586 C 550.487 1131.008, 544.245 1132.832, 539.723 1133.639 C 510.302 1138.888, 492.641 1121.412, 494.244 1088.635 C 495.077 1071.582, 500.879 1061.153, 512.786 1055.306 C 517.965 1052.763, 519.482 1052.503, 529 1052.533 C 540.767 1052.570, 545.679 1054.145, 552.387 1060.035 C 554.411 1061.812, 556.274 1063.059, 556.528 1062.805 C 556.781 1062.552, 559.882 1057.098, 563.418 1050.686 L 569.848 1039.028 566.974 1036.982 C 562.731 1033.960, 554.312 1030.306, 547.500 1028.529 C 540.007 1026.575, 523.424 1025.804, 515.536 1027.044 M 644.235 1027.145 C 630.394 1029.130, 617.237 1035.832, 608.149 1045.527 C 596.755 1057.682, 591.638 1071.964, 591.678 1091.500 C 591.694 1099.256, 592.300 1105.976, 593.392 1110.500 C 598.952 1133.540, 617.416 1152.136, 640 1157.443 C 648.830 1159.518, 668.401 1159.486, 676.936 1157.382 C 684.832 1155.436, 697.811 1149.656, 698.538 1147.762 C 699.269 1145.855, 689.053 1126.749, 687.639 1127.379 C 664.912 1137.513, 648.033 1137.129, 635.880 1126.202 C 626.722 1117.968, 622.196 1104.094, 623.263 1087.531 C 624.700 1065.229, 637.820 1052, 658.500 1052 C 666.772 1052, 673.505 1054.163, 680.234 1058.981 L 685.840 1062.996 692.402 1051.248 L 698.964 1039.500 696.732 1037.606 C 692.208 1033.765, 680.464 1029.054, 671.619 1027.530 C 661.946 1025.864, 653.955 1025.751, 644.235 1027.145 M 774.536 1027.113 C 749.113 1030.816, 729.361 1048.627, 722.972 1073.609 C 720.484 1083.337, 720.306 1100.962, 722.590 1111.303 C 727.725 1134.542, 743.742 1151.179, 766.609 1157.028 C 772.588 1158.557, 777.664 1159, 789.202 1159 C 805.560 1159, 815.169 1157.502, 826.111 1153.247 C 836.966 1149.026, 836.674 1149.883, 831.398 1137.744 L 826.813 1127.196 821.492 1129.633 C 813.533 1133.276, 803.849 1134.963, 790.785 1134.983 C 778.103 1135.001, 772.601 1133.750, 765.914 1129.324 C 760.049 1125.443, 755.050 1116.958, 752.620 1106.760 L 751.967 1104.020 797.733 1103.760 L 843.500 1103.500 843.786 1090.500 C 844.269 1068.536, 839.646 1053.339, 828.911 1041.592 C 817.839 1029.479, 796.784 1023.872, 774.536 1027.113 M 911.547 1027.042 C 894.760 1029.684, 882.162 1037.826, 876.799 1049.500 C 874.915 1053.600, 874.501 1056.209, 874.501 1064 C 874.500 1072.060, 874.872 1074.258, 876.953 1078.500 C 882.400 1089.605, 893.805 1097.499, 918.019 1106.927 C 926.697 1110.305, 935.073 1114.250, 937.019 1115.875 C 940.048 1118.404, 940.500 1119.365, 940.500 1123.285 C 940.500 1131.222, 935.095 1134.966, 922.503 1135.751 C 911.809 1136.419, 899.787 1133.989, 890 1129.183 C 885.875 1127.157, 882.227 1125.371, 881.893 1125.214 C 881.220 1124.898, 871.977 1145.828, 871.991 1147.636 C 872.009 1149.956, 885.759 1155.118, 898.210 1157.480 C 908.549 1159.442, 929.475 1159.448, 937.769 1157.492 C 944.591 1155.884, 952.592 1152.170, 957.821 1148.185 C 969.233 1139.488, 973.227 1120.161, 966.468 1106.346 C 961.650 1096.496, 949.081 1087.925, 928.572 1080.501 C 908.833 1073.356, 904 1069.655, 904 1061.685 C 904 1056.637, 907.166 1053.298, 913.774 1051.377 C 923.775 1048.470, 941.943 1051.263, 949.904 1056.932 L 952.731 1058.944 957.865 1047.609 C 960.689 1041.374, 963 1035.794, 963 1035.208 C 963 1033.851, 953.424 1030.232, 945 1028.406 C 936.520 1026.567, 919.081 1025.856, 911.547 1027.042 M 1246.870 1027.071 C 1223.777 1030.464, 1205.913 1046.320, 1198.504 1070 C 1197.401 1073.525, 1196.599 1080.366, 1196.270 1089.050 C 1195.833 1100.589, 1196.063 1103.813, 1197.824 1110.777 C 1201.086 1123.676, 1205.366 1131.336, 1214.500 1140.623 C 1227.479 1153.819, 1240.107 1159, 1259.289 1159 C 1266.938 1159, 1271.535 1158.461, 1276.217 1157.015 C 1286.439 1153.858, 1297.617 1145.624, 1303.351 1137.027 C 1304.932 1134.657, 1305 1135.020, 1305 1145.805 L 1305 1157.055 1319.250 1156.777 L 1333.500 1156.500 1333.757 1093.250 L 1334.015 1030 1319.507 1030 L 1305 1030 1305 1038.833 C 1305 1043.692, 1304.714 1047.952, 1304.365 1048.301 C 1304.016 1048.650, 1302.520 1047.413, 1301.040 1045.551 C 1289.557 1031.101, 1268.450 1023.901, 1246.870 1027.071 M 1435.402 1027.486 C 1423.466 1030.082, 1411.927 1038.165, 1406.166 1047.966 L 1403.500 1052.500 1403.217 1041.250 L 1402.934 1030 1388.467 1030 L 1374 1030 1374 1093.500 L 1374 1157 1388.955 1157 L 1403.910 1157 1404.205 1119.250 L 1404.500 1081.500 1407.685 1074.777 C 1419.131 1050.614, 1449.935 1042.504, 1459.561 1061.118 C 1463.518 1068.769, 1464.204 1076.233, 1464.720 1117.250 L 1465.220 1157 1480.110 1157 L 1495 1157 1494.991 1125.250 C 1494.975 1065.267, 1492.450 1050.247, 1480.296 1037.824 C 1470.678 1027.993, 1452.408 1023.786, 1435.402 1027.486 M 1675.169 1026.957 C 1654.137 1030.288, 1636.447 1042.899, 1627.958 1060.613 C 1622.857 1071.258, 1621.529 1078.035, 1621.514 1093.500 C 1621.499 1108.970, 1623.134 1116.376, 1629.233 1128.465 C 1633.539 1136.998, 1644.550 1147.686, 1653.746 1152.259 C 1665.344 1158.026, 1673.167 1159.307, 1693.303 1158.740 C 1710.683 1158.250, 1715.317 1157.472, 1727.075 1153.073 C 1736.991 1149.363, 1736.828 1149.849, 1731.989 1138.439 C 1729.671 1132.972, 1727.575 1128.166, 1727.333 1127.757 C 1727.090 1127.349, 1725.079 1127.939, 1722.865 1129.069 C 1712.388 1134.414, 1688.118 1136.994, 1676.853 1133.960 C 1664.307 1130.582, 1657.266 1122.997, 1653.452 1108.750 L 1652.181 1104 1697.531 1104 C 1728.834 1104, 1743.088 1103.667, 1743.547 1102.924 C 1743.913 1102.331, 1744.190 1095.694, 1744.163 1088.174 C 1744.084 1066.631, 1739.836 1053.338, 1729.445 1042.114 C 1723.461 1035.651, 1715.323 1030.844, 1706.419 1028.513 C 1699.242 1026.635, 1682.473 1025.800, 1675.169 1026.957 M 779.246 1052.172 C 771.074 1053.097, 763.638 1057.152, 759.390 1063 C 756.361 1067.170, 752 1078.099, 752 1081.521 C 752 1082.795, 756.382 1083, 783.637 1083 L 815.274 1083 814.744 1076.400 C 813.966 1066.712, 810.020 1059.570, 803.380 1055.834 C 797.388 1052.463, 788.538 1051.120, 779.246 1052.172 M 1680 1052.080 C 1676.975 1052.446, 1672.584 1053.528, 1670.242 1054.484 C 1662.303 1057.727, 1654.805 1068.506, 1652.668 1079.750 L 1652.050 1083 1683.525 1083 L 1715 1083 1715 1077.678 C 1715 1059.392, 1701.454 1049.485, 1680 1052.080 M 1252.500 1053.343 C 1242.970 1056.491, 1235.683 1063.065, 1231.461 1072.325 C 1222.966 1090.957, 1228.131 1117.839, 1242.159 1128 C 1251.515 1134.778, 1266.835 1136.454, 1278.500 1131.978 C 1286.791 1128.796, 1295.833 1119.755, 1298.881 1111.597 C 1305.033 1095.131, 1301.579 1074.947, 1290.598 1063.208 C 1283.659 1055.790, 1276.519 1052.693, 1265.500 1052.323 C 1259.921 1052.136, 1254.980 1052.523, 1252.500 1053.343" stroke="none" fill="#ffffff" fill-rule="evenodd"/><path d="M 1103.500 950.626 C 1102.400 950.842, 1099.025 951.504, 1096 952.095 C 1086.655 953.922, 1074.694 960.331, 1067.629 967.298 C 1057.519 977.267, 1053.583 988.061, 1053.698 1005.500 C 1053.810 1022.390, 1059.524 1035.654, 1071.606 1047.069 C 1078.056 1053.164, 1085.457 1057.746, 1103 1066.506 C 1130.697 1080.336, 1139.373 1089.520, 1139.364 1105 C 1139.358 1115.799, 1132.787 1124.771, 1122.133 1128.524 C 1114.939 1131.058, 1102.679 1131.546, 1095 1129.603 C 1087.614 1127.734, 1073.140 1121.104, 1068.165 1117.312 C 1066.331 1115.913, 1064.485 1115.159, 1064.061 1115.635 C 1063.638 1116.111, 1060.294 1121.864, 1056.630 1128.419 L 1049.969 1140.338 1052.099 1142.605 C 1056.672 1147.473, 1073.517 1154.700, 1087 1157.578 C 1095.972 1159.493, 1117.287 1159.402, 1126.303 1157.410 C 1137.824 1154.864, 1149.193 1148.878, 1156.401 1141.563 C 1164.436 1133.409, 1168.757 1124.691, 1170.844 1112.424 C 1173.533 1096.615, 1170.712 1084.358, 1161.372 1071.269 C 1155.033 1062.384, 1146.741 1055.928, 1128.355 1045.557 C 1105.719 1032.790, 1097.854 1027.620, 1092.724 1022.136 C 1085.750 1014.680, 1084.530 1011.751, 1084.514 1002.422 C 1084.501 995.158, 1084.806 993.848, 1087.533 989.437 C 1096.703 974.606, 1126.648 974.204, 1145.615 988.657 C 1149.318 991.480, 1148.551 992.223, 1157.042 977.588 L 1163.374 966.675 1159.937 963.776 C 1154.381 959.091, 1142.624 953.973, 1132.720 951.929 C 1124.366 950.205, 1109.095 949.524, 1103.500 950.626 M 1558.500 974.439 L 1544.500 977.640 1544.233 1003.820 L 1543.967 1030 1532.983 1030 L 1522 1030 1522 1042 L 1522 1054 1533 1054 L 1544 1054 1544 1105.526 L 1544 1157.052 1559.250 1156.776 L 1574.500 1156.500 1574.759 1105.250 L 1575.018 1054 1589.509 1054 L 1604 1054 1604 1042 L 1604 1030 1589.515 1030 L 1575.030 1030 1574.765 1000.833 C 1574.598 982.414, 1574.132 971.587, 1573.500 971.452 C 1572.950 971.335, 1566.200 972.679, 1558.500 974.439 M 1246.870 1027.071 C 1223.777 1030.464, 1205.913 1046.320, 1198.504 1070 C 1197.401 1073.525, 1196.599 1080.366, 1196.270 1089.050 C 1195.833 1100.589, 1196.063 1103.813, 1197.824 1110.777 C 1201.086 1123.676, 1205.366 1131.336, 1214.500 1140.623 C 1227.479 1153.819, 1240.107 1159, 1259.289 1159 C 1266.938 1159, 1271.535 1158.461, 1276.217 1157.015 C 1286.439 1153.858, 1297.617 1145.624, 1303.351 1137.027 C 1304.932 1134.657, 1305 1135.020, 1305 1145.805 L 1305 1157.055 1319.250 1156.777 L 1333.500 1156.500 1333.757 1093.250 L 1334.015 1030 1319.507 1030 L 1305 1030 1305 1038.833 C 1305 1043.692, 1304.714 1047.952, 1304.365 1048.301 C 1304.016 1048.650, 1302.520 1047.413, 1301.040 1045.551 C 1289.557 1031.101, 1268.450 1023.901, 1246.870 1027.071 M 1435.402 1027.486 C 1423.466 1030.082, 1411.927 1038.165, 1406.166 1047.966 L 1403.500 1052.500 1403.217 1041.250 L 1402.934 1030 1388.467 1030 L 1374 1030 1374 1093.500 L 1374 1157 1388.955 1157 L 1403.910 1157 1404.205 1119.250 L 1404.500 1081.500 1407.685 1074.777 C 1419.131 1050.614, 1449.935 1042.504, 1459.561 1061.118 C 1463.518 1068.769, 1464.204 1076.233, 1464.720 1117.250 L 1465.220 1157 1480.110 1157 L 1495 1157 1494.991 1125.250 C 1494.975 1065.267, 1492.450 1050.247, 1480.296 1037.824 C 1470.678 1027.993, 1452.408 1023.786, 1435.402 1027.486 M 1675.169 1026.957 C 1654.137 1030.288, 1636.447 1042.899, 1627.958 1060.613 C 1622.857 1071.258, 1621.529 1078.035, 1621.514 1093.500 C 1621.499 1108.970, 1623.134 1116.376, 1629.233 1128.465 C 1633.539 1136.998, 1644.550 1147.686, 1653.746 1152.259 C 1665.344 1158.026, 1673.167 1159.307, 1693.303 1158.740 C 1710.683 1158.250, 1715.317 1157.472, 1727.075 1153.073 C 1736.991 1149.363, 1736.828 1149.849, 1731.989 1138.439 C 1729.671 1132.972, 1727.575 1128.166, 1727.333 1127.757 C 1727.090 1127.349, 1725.079 1127.939, 1722.865 1129.069 C 1712.388 1134.414, 1688.118 1136.994, 1676.853 1133.960 C 1664.307 1130.582, 1657.266 1122.997, 1653.452 1108.750 L 1652.181 1104 1697.531 1104 C 1728.834 1104, 1743.088 1103.667, 1743.547 1102.924 C 1743.913 1102.331, 1744.190 1095.694, 1744.163 1088.174 C 1744.084 1066.631, 1739.836 1053.338, 1729.445 1042.114 C 1723.461 1035.651, 1715.323 1030.844, 1706.419 1028.513 C 1699.242 1026.635, 1682.473 1025.800, 1675.169 1026.957 M 1680 1052.080 C 1676.975 1052.446, 1672.584 1053.528, 1670.242 1054.484 C 1662.303 1057.727, 1654.805 1068.506, 1652.668 1079.750 L 1652.050 1083 1683.525 1083 L 1715 1083 1715 1077.678 C 1715 1059.392, 1701.454 1049.485, 1680 1052.080 M 1252.500 1053.343 C 1242.970 1056.491, 1235.683 1063.065, 1231.461 1072.325 C 1222.966 1090.957, 1228.131 1117.839, 1242.159 1128 C 1251.515 1134.778, 1266.835 1136.454, 1278.500 1131.978 C 1286.791 1128.796, 1295.833 1119.755, 1298.881 1111.597 C 1305.033 1095.131, 1301.579 1074.947, 1290.598 1063.208 C 1283.659 1055.790, 1276.519 1052.693, 1265.500 1052.323 C 1259.921 1052.136, 1254.980 1052.523, 1252.500 1053.343" stroke="none" fill="#4b91f1" fill-rule="evenodd"/><path d="M 963.001 343.067 C 879.034 355.762, 807.987 407.666, 770.998 483.335 C 759.278 507.312, 751.624 531.424, 747.458 557.500 C 745.267 571.215, 744.434 605.635, 745.932 620.593 C 752.078 681.981, 779.426 737.866, 824.139 780.410 C 862.374 816.791, 909.686 839.967, 962.500 848.187 C 982.572 851.311, 1017.464 851.308, 1037.500 848.181 C 1065.214 843.855, 1087.292 836.891, 1112.500 824.526 C 1139.224 811.417, 1158.573 797.533, 1180.053 776.053 C 1213.480 742.626, 1235.605 704.118, 1247.020 659.500 C 1253.438 634.417, 1254.505 625.170, 1254.465 595 C 1254.427 566.536, 1253.178 555.399, 1247.519 533.076 C 1235.400 485.265, 1207.172 438.388, 1171.235 406.392 C 1131.966 371.430, 1087.452 350.562, 1036 342.996 C 1017.518 340.278, 981.213 340.314, 963.001 343.067 M 986 359.592 C 951.689 362.541, 924.067 369.890, 896.458 383.414 C 823.097 419.349, 774.216 489.023, 764.935 570.887 C 763.228 585.939, 764.240 619.301, 766.864 634.500 C 778.246 700.425, 815.799 757.483, 872 794.243 C 898.953 811.873, 932.608 824.471, 966.500 829.617 C 983.184 832.151, 1016.816 832.151, 1033.500 829.617 C 1074.150 823.445, 1109.805 808.513, 1143 783.759 C 1154.441 775.228, 1178.334 751.562, 1186.676 740.500 C 1211.342 707.791, 1226.033 674.239, 1233.091 634.500 C 1235.776 619.383, 1236.770 588.126, 1235.084 571.810 C 1226.671 490.360, 1176.858 419.045, 1103.542 383.486 C 1071.314 367.856, 1041.542 360.584, 1005.836 359.619 C 997.401 359.392, 988.475 359.379, 986 359.592 M 915.500 480.592 C 886.728 486.991, 862.486 510.226, 854.847 538.726 C 852.141 548.821, 851.893 567.372, 854.332 577.319 C 857.650 590.856, 866.486 606.380, 876.158 615.669 C 883.286 622.514, 999.408 712.046, 1000.582 711.602 C 1002.681 710.806, 1118.566 620.665, 1123.340 616.114 C 1133.473 606.453, 1142.275 591.160, 1145.668 577.319 C 1148.107 567.372, 1147.859 548.821, 1145.153 538.726 C 1137.308 509.457, 1112.808 486.467, 1083.046 480.446 C 1073.104 478.435, 1057.100 478.891, 1047.500 481.458 C 1030.418 486.027, 1014.941 496.575, 1002.687 512 L 999.906 515.500 997.203 512.007 C 985.504 496.891, 969.707 486.091, 952.500 481.442 C 943.832 479.101, 924.230 478.651, 915.500 480.592 M 923.470 492.042 C 890.532 496.351, 864.947 525.402, 865.017 558.410 C 865.056 576.508, 871.127 591.799, 883.273 604.389 C 891.103 612.505, 997.392 695.388, 1000 695.411 C 1002.586 695.434, 1108.840 612.589, 1116.727 604.401 C 1151.894 567.889, 1133.745 506.358, 1084 493.446 C 1075.650 491.279, 1060.512 491.253, 1051.967 493.392 C 1041.354 496.048, 1029.708 502.368, 1021.964 509.673 C 1014.276 516.926, 1009.030 524.688, 1004.006 536.250 C 1002.154 540.513, 1000.351 544, 1000 544 C 999.649 544, 997.846 540.513, 995.994 536.250 C 990.970 524.688, 985.724 516.926, 978.036 509.673 C 963.935 496.371, 942.736 489.521, 923.470 492.042 M 1010.224 569.512 C 1005.222 584.905, 999.698 601.985, 997.948 607.467 L 994.767 617.433 992.093 611.467 C 990.622 608.185, 985.387 596.430, 980.460 585.344 C 975.532 574.259, 971.376 565.308, 971.224 565.454 C 971.072 565.600, 968.983 571.295, 966.582 578.110 L 962.216 590.500 946.108 590.775 L 930 591.050 930 596.525 L 930 602 950.052 602 L 970.104 602 971.176 598.924 C 971.766 597.233, 972.589 596.220, 973.005 596.674 C 973.421 597.128, 978.134 607.393, 983.477 619.485 C 988.821 631.576, 993.949 642.943, 994.873 644.743 L 996.552 648.017 1007.439 614.259 C 1013.427 595.691, 1018.745 579.375, 1019.257 578 C 1020.076 575.797, 1020.801 577.165, 1025.354 589.500 L 1030.520 603.500 1050.260 603.771 L 1070 604.042 1070 598.521 L 1070 593 1054.250 592.995 L 1038.500 592.990 1030.559 571.245 C 1026.192 559.285, 1021.876 547.705, 1020.968 545.512 L 1019.318 541.524 1010.224 569.512 M 345.120 969.250 C 273.049 1119.907, 256 1155.693, 256 1156.312 C 256 1156.716, 263.719 1156.924, 273.154 1156.774 L 290.308 1156.500 298.904 1136.743 L 307.500 1116.986 354.403 1117.243 L 401.306 1117.500 409.903 1137.249 L 418.500 1156.997 436.333 1156.999 C 447.103 1156.999, 454.035 1156.626, 453.833 1156.055 C 453.650 1155.535, 431.675 1109.651, 405 1054.090 C 367.459 975.896, 356.093 953.063, 354.697 953.036 C 353.341 953.009, 350.966 957.030, 345.120 969.250 M 337.400 1050.270 L 320.360 1088.500 337.745 1088.773 C 347.306 1088.924, 362.688 1088.924, 371.926 1088.773 L 388.723 1088.500 380.829 1071 C 376.488 1061.375, 369.072 1044.500, 364.350 1033.500 C 359.628 1022.500, 355.466 1013.171, 355.102 1012.770 C 354.737 1012.368, 346.771 1029.243, 337.400 1050.270 M 515.536 1027.044 C 501.757 1029.210, 490.658 1034.527, 481.103 1043.542 C 473.352 1050.853, 467.424 1060.946, 464.387 1072 C 461.925 1080.963, 461.888 1101.956, 464.320 1111 C 470.583 1134.297, 486.546 1150.710, 508.987 1156.929 C 517.312 1159.236, 537.811 1159.802, 545.859 1157.946 C 552.030 1156.523, 565.065 1151.316, 567.846 1149.163 L 570.192 1147.346 565.087 1137.173 C 562.279 1131.578, 559.815 1127, 559.612 1127 C 559.408 1127, 556.700 1128.164, 553.593 1129.586 C 550.487 1131.008, 544.245 1132.832, 539.723 1133.639 C 510.302 1138.888, 492.641 1121.412, 494.244 1088.635 C 495.077 1071.582, 500.879 1061.153, 512.786 1055.306 C 517.965 1052.763, 519.482 1052.503, 529 1052.533 C 540.767 1052.570, 545.679 1054.145, 552.387 1060.035 C 554.411 1061.812, 556.274 1063.059, 556.528 1062.805 C 556.781 1062.552, 559.882 1057.098, 563.418 1050.686 L 569.848 1039.028 566.974 1036.982 C 562.731 1033.960, 554.312 1030.306, 547.500 1028.529 C 540.007 1026.575, 523.424 1025.804, 515.536 1027.044 M 644.235 1027.145 C 630.394 1029.130, 617.237 1035.832, 608.149 1045.527 C 596.755 1057.682, 591.638 1071.964, 591.678 1091.500 C 591.694 1099.256, 592.300 1105.976, 593.392 1110.500 C 598.952 1133.540, 617.416 1152.136, 640 1157.443 C 648.830 1159.518, 668.401 1159.486, 676.936 1157.382 C 684.832 1155.436, 697.811 1149.656, 698.538 1147.762 C 699.269 1145.855, 689.053 1126.749, 687.639 1127.379 C 664.912 1137.513, 648.033 1137.129, 635.880 1126.202 C 626.722 1117.968, 622.196 1104.094, 623.263 1087.531 C 624.700 1065.229, 637.820 1052, 658.500 1052 C 666.772 1052, 673.505 1054.163, 680.234 1058.981 L 685.840 1062.996 692.402 1051.248 L 698.964 1039.500 696.732 1037.606 C 692.208 1033.765, 680.464 1029.054, 671.619 1027.530 C 661.946 1025.864, 653.955 1025.751, 644.235 1027.145 M 774.536 1027.113 C 749.113 1030.816, 729.361 1048.627, 722.972 1073.609 C 720.484 1083.337, 720.306 1100.962, 722.590 1111.303 C 727.725 1134.542, 743.742 1151.179, 766.609 1157.028 C 772.588 1158.557, 777.664 1159, 789.202 1159 C 805.560 1159, 815.169 1157.502, 826.111 1153.247 C 836.966 1149.026, 836.674 1149.883, 831.398 1137.744 L 826.813 1127.196 821.492 1129.633 C 813.533 1133.276, 803.849 1134.963, 790.785 1134.983 C 778.103 1135.001, 772.601 1133.750, 765.914 1129.324 C 760.049 1125.443, 755.050 1116.958, 752.620 1106.760 L 751.967 1104.020 797.733 1103.760 L 843.500 1103.500 843.786 1090.500 C 844.269 1068.536, 839.646 1053.339, 828.911 1041.592 C 817.839 1029.479, 796.784 1023.872, 774.536 1027.113 M 911.547 1027.042 C 894.760 1029.684, 882.162 1037.826, 876.799 1049.500 C 874.915 1053.600, 874.501 1056.209, 874.501 1064 C 874.500 1072.060, 874.872 1074.258, 876.953 1078.500 C 882.400 1089.605, 893.805 1097.499, 918.019 1106.927 C 926.697 1110.305, 935.073 1114.250, 937.019 1115.875 C 940.048 1118.404, 940.500 1119.365, 940.500 1123.285 C 940.500 1131.222, 935.095 1134.966, 922.503 1135.751 C 911.809 1136.419, 899.787 1133.989, 890 1129.183 C 885.875 1127.157, 882.227 1125.371, 881.893 1125.214 C 881.220 1124.898, 871.977 1145.828, 871.991 1147.636 C 872.009 1149.956, 885.759 1155.118, 898.210 1157.480 C 908.549 1159.442, 929.475 1159.448, 937.769 1157.492 C 944.591 1155.884, 952.592 1152.170, 957.821 1148.185 C 969.233 1139.488, 973.227 1120.161, 966.468 1106.346 C 961.650 1096.496, 949.081 1087.925, 928.572 1080.501 C 908.833 1073.356, 904 1069.655, 904 1061.685 C 904 1056.637, 907.166 1053.298, 913.774 1051.377 C 923.775 1048.470, 941.943 1051.263, 949.904 1056.932 L 952.731 1058.944 957.865 1047.609 C 960.689 1041.374, 963 1035.794, 963 1035.208 C 963 1033.851, 953.424 1030.232, 945 1028.406 C 936.520 1026.567, 919.081 1025.856, 911.547 1027.042 M 779.246 1052.172 C 771.074 1053.097, 763.638 1057.152, 759.390 1063 C 756.361 1067.170, 752 1078.099, 752 1081.521 C 752 1082.795, 756.382 1083, 783.637 1083 L 815.274 1083 814.744 1076.400 C 813.966 1066.712, 810.020 1059.570, 803.380 1055.834 C 797.388 1052.463, 788.538 1051.120, 779.246 1052.172" stroke="none" fill="#2eaedf" fill-rule="evenodd"/></svg>