<svg xmlns="http://www.w3.org/2000/svg" width="1500" height="250" viewBox="0 0 1500 250" version="1.1"><path d="M 1324.477 73.250 L 1324.500 102.500 1339 102.540 L 1353.500 102.580 1339.265 102.263 L 1325.030 101.947 1324.742 72.973 L 1324.454 43.999 1324.477 73.250 M 803.355 77.500 C 803.352 82.450, 803.521 84.601, 803.731 82.280 C 803.940 79.959, 803.943 75.909, 803.736 73.280 C 803.530 70.651, 803.358 72.550, 803.355 77.500 M 1068.743 102.748 L 1082.985 103.055 1083.250 166.777 L 1083.515 230.500 1083.758 166.250 L 1084 102 1069.250 102.220 L 1054.500 102.441 1068.743 102.748 M 1123.242 166.224 L 1123.485 230.500 1123.750 166.750 L 1124.015 103 1138.507 103 L 1153 103 1153 114.059 C 1153 120.141, 1153.338 124.911, 1153.750 124.658 C 1154.162 124.404, 1154.275 119.315, 1154 113.349 L 1153.500 102.500 1138.250 102.224 L 1123 101.948 1123.242 166.224 M 1271.434 103.311 C 1271.157 104.032, 1271.075 109.770, 1271.252 116.061 L 1271.572 127.500 1271.786 115.283 L 1272 103.066 1283.250 102.747 L 1294.500 102.428 1283.219 102.214 C 1274.679 102.052, 1271.815 102.319, 1271.434 103.311 M 1054.180 112.809 C 1054.043 119.156, 1053.705 120.941, 1052.750 120.367 C 1052.029 119.934, 1052.135 120.402, 1053 121.473 C 1054.390 123.194, 1054.522 122.989, 1054.805 118.665 C 1054.972 116.099, 1054.941 111.862, 1054.735 109.250 C 1054.495 106.199, 1054.296 107.473, 1054.180 112.809 M 1324.465 178.500 C 1324.465 207.100, 1324.593 218.656, 1324.749 204.180 C 1324.906 189.704, 1324.906 166.304, 1324.749 152.180 C 1324.593 138.056, 1324.465 149.900, 1324.465 178.500 M 1465.079 152.750 L 1465 155 1434.083 155 C 1410.286 155, 1403.051 154.712, 1402.662 153.750 C 1402.361 153.003, 1402.126 153.205, 1402.079 154.250 C 1402.005 155.881, 1404.138 156, 1433.531 156 C 1460.322 156, 1465.147 155.779, 1465.626 154.533 C 1465.935 153.726, 1465.957 152.489, 1465.673 151.783 C 1465.390 151.077, 1465.122 151.512, 1465.079 152.750 M 1494.374 161.500 C 1494.376 167.550, 1494.541 169.896, 1494.740 166.713 C 1494.939 163.531, 1494.937 158.581, 1494.736 155.713 C 1494.535 152.846, 1494.372 155.450, 1494.374 161.500 M 502.116 153.750 L 502 156 533.750 155.765 L 565.500 155.530 534.321 155.251 C 505.701 154.995, 503.104 154.829, 502.687 153.236 C 502.349 151.947, 502.202 152.079, 502.116 153.750 M 470.349 166 C 470.349 170.675, 470.522 172.588, 470.732 170.250 C 470.943 167.912, 470.943 164.088, 470.732 161.750 C 470.522 159.412, 470.349 161.325, 470.349 166 M 1214.452 194 C 1214.452 214.075, 1214.585 222.288, 1214.749 212.250 C 1214.912 202.213, 1214.912 185.788, 1214.749 175.750 C 1214.585 165.713, 1214.452 173.925, 1214.452 194 M 593 174.990 C 593 175.625, 576.590 176.077, 547.250 176.250 L 501.500 176.521 547.750 176.760 C 588.301 176.970, 594 176.815, 594 175.500 C 594 174.675, 593.775 174, 593.500 174 C 593.225 174, 593 174.445, 593 174.990 M 1402.667 176.667 C 1402.300 177.033, 1402.007 177.821, 1402.015 178.417 C 1402.025 179.067, 1402.345 179.004, 1402.818 178.260 C 1403.421 177.310, 1414.230 176.957, 1449.053 176.750 L 1494.500 176.479 1448.917 176.240 C 1423.846 176.108, 1403.033 176.300, 1402.667 176.667" stroke="none" fill="#c5e4f6" fill-rule="evenodd"/><path d="M 852.477 23.918 C 838.149 26.224, 825.829 32.047, 817.351 40.521 C 808.060 49.808, 804 60.997, 804 77.316 C 804 95.342, 808.650 106.768, 820.964 119 C 827.889 125.879, 830.330 127.452, 850.447 138 C 880.255 153.629, 887.751 160.646, 889.559 174.613 C 891.011 185.821, 884.757 196.145, 873.513 201.104 C 866.604 204.151, 852.821 204.824, 844.092 202.540 C 837.115 200.715, 823.464 194.261, 818.184 190.291 C 816.361 188.920, 814.603 188.063, 814.279 188.387 C 813.955 188.711, 810.638 194.494, 806.907 201.238 L 800.124 213.500 802.203 215.714 C 805.201 218.908, 819.047 225.468, 829.500 228.648 C 837.791 231.170, 839.878 231.390, 856 231.443 C 872.670 231.497, 873.917 231.363, 882.306 228.614 C 907.420 220.382, 921.221 201.802, 921.386 176 C 921.486 160.455, 916.579 148.623, 905.398 137.441 C 898.838 130.882, 892.421 126.527, 874.500 116.475 C 847.918 101.564, 839.279 94.535, 835.558 84.791 C 833.341 78.986, 833.762 69.260, 836.474 63.634 C 840.629 55.015, 851.728 50.430, 866.440 51.255 C 876.934 51.844, 884.643 54.374, 893.255 60.057 L 899.010 63.854 906.089 51.849 C 912.971 40.178, 913.119 39.789, 911.374 37.861 C 908.837 35.058, 892.639 27.303, 885.500 25.475 C 878.407 23.658, 859.600 22.772, 852.477 23.918 M 98.167 36.179 C 95.493 41.856, 73.662 87.559, 49.653 137.742 C 25.644 187.924, 6 229.222, 6 229.515 C 6 229.808, 13.690 229.924, 23.088 229.774 L 40.176 229.500 48.787 209.740 L 57.397 189.981 104.373 190.240 L 151.350 190.500 159.949 210 L 168.547 229.500 186.274 229.773 C 196.023 229.923, 204 229.915, 204 229.754 C 204 229.593, 182.032 183.796, 155.183 127.982 C 122.336 59.700, 105.820 26.396, 104.697 26.180 C 103.450 25.940, 101.797 28.470, 98.167 36.179 M 1311.071 47.180 C 1304.236 48.661, 1297.598 50.135, 1296.321 50.455 L 1294 51.038 1294 77.019 L 1294 103 1283 103 L 1272 103 1272 115 L 1272 127 1282.991 127 L 1293.982 127 1294.241 178.250 L 1294.500 229.500 1309.250 229.777 L 1324 230.053 1324 178.527 L 1324 127 1339 127 L 1354 127 1354 115.027 L 1354 103.053 1339.250 102.777 L 1324.500 102.500 1324 73.494 L 1323.500 44.487 1311.071 47.180 M 88.417 120.544 C 79.663 140.129, 71.936 157.469, 71.247 159.077 L 69.994 162 104.462 162 L 138.929 162 137.096 157.750 C 136.087 155.412, 131.558 145.221, 127.030 135.103 C 122.503 124.984, 115.891 109.909, 112.337 101.603 C 108.783 93.296, 105.529 86.148, 105.105 85.717 C 104.681 85.286, 97.171 100.958, 88.417 120.544 M 266.500 100.059 C 244.754 103.376, 228.104 114.785, 219.588 132.204 C 214.160 143.304, 212.616 150.566, 212.611 165 C 212.605 186.564, 217.747 199.808, 231.463 213.554 C 240.372 222.482, 249.239 227.529, 261.064 230.404 C 270.490 232.696, 288.595 232.533, 298.226 230.070 C 305.405 228.234, 320 221.703, 320 220.327 C 320 219.808, 310.293 201.205, 309.516 200.236 C 309.400 200.090, 306.796 201.120, 303.731 202.523 C 284.345 211.398, 263.076 208.627, 253.030 195.918 C 246.144 187.207, 244.580 181.603, 244.543 165.500 C 244.514 153.169, 244.784 150.820, 246.809 145.798 C 248.073 142.662, 251.095 137.886, 253.524 135.184 C 259.516 128.520, 265.995 125.784, 277.140 125.210 C 287.619 124.671, 293.653 126.388, 301.192 132.052 L 306.361 135.936 308 133.218 C 308.901 131.723, 311.858 126.358, 314.569 121.296 C 320.171 110.838, 320.416 111.802, 310.825 106.527 C 301.019 101.135, 279.772 98.035, 266.500 100.059 M 396 100.045 C 374.625 102.930, 357.281 114.783, 348.550 132.472 C 343.663 142.373, 341.831 151.298, 341.874 165 C 341.972 196.537, 357.343 219.023, 385.725 229.151 C 393.127 231.793, 414.012 232.845, 423.239 231.040 C 430.606 229.600, 443.507 224.748, 446.846 222.163 L 449.192 220.346 444.087 210.173 C 441.279 204.578, 438.636 200, 438.213 200 C 437.791 200, 436.542 200.633, 435.438 201.406 C 431.024 204.497, 418.662 207.425, 410 207.431 C 400.091 207.437, 395.101 206.164, 388.885 202.047 C 379.358 195.737, 374.127 184.557, 373.260 168.656 C 372.175 148.753, 378.599 134.782, 391.818 128.290 C 396.991 125.750, 398.486 125.500, 408.500 125.500 C 420.440 125.500, 423.837 126.597, 432.155 133.142 L 435.810 136.018 442.310 124.259 L 448.809 112.500 446.655 110.605 C 443.462 107.796, 433.332 103.271, 426.500 101.602 C 418.647 99.683, 404.161 98.944, 396 100.045 M 525.500 100.055 C 503.697 103.315, 486.492 115.608, 477.620 134.266 C 472.353 145.343, 470.650 154.830, 471.230 169.875 C 472.018 190.354, 477.483 203.503, 490.207 215.539 C 498.100 223.005, 507.847 228.023, 519.319 230.526 C 525.564 231.888, 530.396 232.133, 543.319 231.741 C 561.018 231.204, 568.945 229.607, 579.764 224.398 L 585.783 221.500 581.452 211.500 C 576.539 200.153, 577.138 200.438, 566.620 204.442 C 562.246 206.107, 555.961 207.441, 549.360 208.106 C 524.326 210.625, 510.036 203.437, 504.094 185.336 C 502.942 181.828, 502 178.292, 502 177.479 C 502 176.195, 508.007 176, 547.481 176 L 592.962 176 593.618 173.384 C 593.979 171.946, 594.028 164.858, 593.727 157.634 C 592.400 125.810, 579.930 107.529, 555.500 101.593 C 547.622 99.679, 533.021 98.931, 525.500 100.055 M 663.388 99.989 C 645.145 102.555, 632.134 110.505, 626.898 122.286 C 623.406 130.143, 623.533 143.422, 627.174 151 C 630.346 157.603, 632.900 160.623, 639.427 165.483 C 645.850 170.267, 655.410 175.037, 668.214 179.847 C 686.131 186.577, 689.635 188.978, 690.648 195.221 C 692.024 203.698, 685.699 208.145, 671.321 208.809 C 657.682 209.438, 647.778 206.786, 631.913 198.258 C 631.319 197.938, 622 219.152, 622 220.823 C 622 222.275, 632.901 226.758, 642.055 229.070 C 648.009 230.574, 654.931 231.355, 665.525 231.717 C 682.417 232.295, 688.937 231.203, 699.500 226.026 C 708.341 221.693, 712.494 217.773, 716.182 210.282 C 719.151 204.250, 719.455 202.792, 719.455 194.542 C 719.455 186.621, 719.095 184.715, 716.665 179.748 C 711.467 169.123, 701.098 162.132, 677.110 153.079 C 657.211 145.569, 654 143.085, 654 135.201 C 654 126.476, 661.959 122.359, 677 123.302 C 686.754 123.914, 694.163 125.943, 699.253 129.397 L 702.799 131.803 707.509 121.152 C 710.100 115.293, 712.444 109.935, 712.719 109.245 C 713.423 107.475, 704.097 103.461, 695 101.617 C 685.227 99.637, 671.072 98.908, 663.388 99.989 M 998.156 100.039 C 967.381 104.213, 947.876 127.139, 946.291 161 C 945.223 183.830, 950.937 200.129, 964.906 214.091 C 977.222 226.402, 991.065 232.021, 1008.960 231.976 C 1020.437 231.946, 1025.444 230.891, 1033.938 226.710 C 1039.994 223.728, 1050.855 214.267, 1053.692 209.500 C 1054.662 207.870, 1054.893 209.579, 1054.941 218.750 L 1055 230 1069 230 L 1083 230 1083 166.500 L 1083 103 1069 103 L 1055 103 1055 113.145 L 1055 123.289 1049.048 116.794 C 1037.054 103.704, 1017.820 97.372, 998.156 100.039 M 1188.500 99.960 C 1174.242 102.291, 1162.780 110.221, 1154.309 123.616 C 1153.345 125.141, 1153.106 123.357, 1153.059 114.250 L 1153 103 1138.500 103 L 1124 103 1124 166.527 L 1124 230.053 1138.750 229.777 L 1153.500 229.500 1154 192 C 1154.474 156.462, 1154.613 154.224, 1156.665 149.220 C 1161.269 137.995, 1171.918 127.963, 1182.322 125.050 C 1184.860 124.339, 1189.800 123.945, 1193.344 124.171 C 1204.546 124.884, 1210.067 130.468, 1213.025 144.075 C 1213.767 147.486, 1214.387 164.453, 1214.697 189.776 L 1215.190 230.052 1229.845 229.776 L 1244.500 229.500 1244.792 204.500 C 1245.346 157.026, 1243.026 131.812, 1237.018 120.036 C 1232.391 110.965, 1223.829 104.093, 1213.891 101.471 C 1207.096 99.679, 1194.725 98.942, 1188.500 99.960 M 1426.161 100.035 C 1400.232 103.565, 1380.256 120.964, 1373.390 146 C 1370.603 156.161, 1370.816 177.092, 1373.812 187.465 C 1377.189 199.158, 1381.468 206.553, 1389.460 214.503 C 1397.601 222.601, 1405.658 226.998, 1418.137 230.154 C 1425.435 231.999, 1428.377 232.182, 1443.447 231.727 C 1456.648 231.328, 1462.127 230.738, 1467.702 229.116 C 1476.948 226.425, 1486.228 222.032, 1485.673 220.608 C 1480.452 207.203, 1477.323 200.987, 1476 201.392 C 1475.175 201.644, 1471.295 203.005, 1467.377 204.416 C 1452.630 209.727, 1431.294 209.969, 1420.610 204.947 C 1415.411 202.503, 1409.515 196.889, 1407.012 192 C 1404.648 187.382, 1401.892 177.984, 1402.576 176.877 C 1402.874 176.394, 1423.566 176, 1448.559 176 L 1494 176 1493.983 162.250 C 1493.962 146.008, 1492.390 137.459, 1487.548 127.263 C 1481.034 113.548, 1468.641 103.899, 1454 101.144 C 1445.624 99.569, 1433.220 99.074, 1426.161 100.035 M 527.786 124.980 C 514.229 127.408, 505.340 137.010, 502.465 152.332 L 501.777 156 533.389 156 L 565 156 565 151.182 C 565 139.227, 558.975 129.775, 549.370 126.662 C 543.109 124.633, 533.780 123.906, 527.786 124.980 M 1427.920 124.954 C 1415.630 127.185, 1407.023 135.786, 1403.359 149.500 C 1402.625 152.250, 1402.018 154.844, 1402.012 155.264 C 1402.005 155.684, 1416.287 155.909, 1433.750 155.764 L 1465.500 155.500 1465.197 150.500 C 1464.390 137.196, 1458.625 128.932, 1448.118 126.017 C 1442.723 124.520, 1433.102 124.014, 1427.920 124.954 M 1003 125.935 C 984.993 131.433, 974.598 151.216, 977.804 173.887 C 979.949 189.059, 986.821 199.371, 998.253 204.572 C 1003.715 207.057, 1005.694 207.414, 1014 207.414 C 1022.298 207.414, 1024.287 207.056, 1029.722 204.583 C 1036.354 201.565, 1044.346 194.097, 1047.531 187.942 C 1051.943 179.413, 1053.325 164.543, 1050.639 154.500 C 1047.270 141.908, 1038.094 131.050, 1027.459 127.071 C 1021.721 124.924, 1008.347 124.303, 1003 125.935" stroke="none" fill="#35a7e0" fill-rule="evenodd"/></svg>